M48
; DRILL file {KiCad (5.1.5)-3} date 04/10/2020 17:53:24
; FORMAT={-:-/ absolute / inch / decimal}
; #@! TF.CreationDate,2020-10-04T17:53:24+01:00
; #@! TF.GenerationSoftware,Kicad,Pcbnew,(5.1.5)-3
; #@! TF.FileFunction,Plated,1,4,PTH
FMAT,2
INCH
T1C0.0197
T2C0.0394
T3C0.0400
T4C0.1575
T5C0.1772
%
G90
G05
T1
X0.1339Y3.3701
X0.1339Y2.7323
X0.1772Y2.7717
X0.1929Y3.626
X0.2283Y3.3701
X0.2362Y3.2244
X0.2992Y3.1496
X0.3302Y3.6709
X0.3661Y3.4843
X0.5709Y1.5181
X0.5827Y0.3583
X0.5866Y0.6063
X0.5984Y3.6772
X0.6142Y1.2008
X0.6614Y0.5709
X0.6614Y0.1969
X0.6732Y3.5118
X0.7283Y3.4094
X0.7402Y0.9921
X0.7559Y2.4409
X0.7559Y1.3583
X0.7638Y0.9173
X0.7874Y2.5551
X0.7874Y1.8543
X0.7874Y1.8543
X0.8307Y2.9882
X0.8307Y0.7244
X0.878Y2.3937
X0.9085Y1.789
X0.9134Y1.7165
X0.9134Y0.6732
X0.9331Y4.1024
X0.9882Y2.1811
X1.0079Y0.3583
X1.0157Y2.6693
X1.0276Y3.5866
X1.0276Y3.248
X1.0315Y1.1693
X1.063Y4.311
X1.0827Y0.5984
X1.1063Y0.5
X1.1339Y4.0472
X1.164Y2.1325
X1.1811Y2.2283
X1.185Y3.378
X1.1969Y1.122
X1.2205Y0.9173
X1.2402Y3.3346
X1.2402Y2.0866
X1.248Y4.311
X1.2874Y3.4764
X1.2874Y2.5276
X1.3197Y2.1346
X1.3209Y0.9685
X1.3323Y1.789
X1.3346Y3.252
X1.3543Y2.8071
X1.3548Y4.1777
X1.3819Y2.5709
X1.4094Y1.9823
X1.4411Y3.2954
X1.4488Y5.6772
X1.4724Y2.8071
X1.5433Y3.0354
X1.5512Y0.5984
X1.5527Y5.2574
X1.5556Y2.5281
X1.5827Y4.248
X1.5866Y3.3465
X1.5906Y1.9449
X1.5906Y1.7362
X1.5906Y0.7717
X1.6063Y0.8268
X1.6339Y3.1969
X1.6339Y3.378
X1.6457Y1.811
X1.6575Y1.122
X1.6654Y0.874
X1.689Y3.3742
X1.689Y1.3268
X1.689Y1.1929
X1.7008Y2.5906
X1.7008Y1.3858
X1.7126Y3.9173
X1.7165Y0.6929
X1.7283Y2.1339
X1.7323Y2.252
X1.7431Y3.4094
X1.7441Y4.7402
X1.754Y5.254
X1.7677Y1.622
X1.7717Y3.5906
X1.7721Y1.8902
X1.7968Y5.7692
X1.7968Y5.6787
X1.7968Y5.4582
X1.8071Y3.6378
X1.8071Y1.9528
X1.8071Y1.8189
X1.815Y1.4724
X1.8381Y3.1344
X1.8425Y1.0236
X1.8465Y3.8583
X1.8465Y0.874
X1.8661Y2.9685
X1.874Y4.1063
X1.9094Y3.7899
X1.9409Y3.0787
X1.9409Y0.6614
X1.9567Y0.5236
X1.9589Y3.2424
X1.9611Y0.2997
X1.9624Y3.2954
X1.9882Y3.3701
X1.9882Y1.6732
X1.9921Y3.7874
X2.0039Y0.7087
X2.0167Y3.5709
X2.0246Y2.3976
X2.063Y3.8189
X2.0638Y3.7189
X2.0669Y0.437
X2.0906Y1.2402
X2.1004Y3.4724
X2.1063Y2.189
X2.1181Y3.7126
X2.129Y3.5118
X2.14Y0.9569
X2.142Y3.016
X2.1457Y3.2677
X2.1604Y3.4409
X2.1604Y3.3228
X2.1614Y0.8071
X2.1902Y3.5399
X2.2047Y5.752
X2.2047Y1.9882
X2.2087Y1.2283
X2.2283Y1.0236
X2.2441Y3.563
X2.2521Y3.4529
X2.2559Y2.3622
X2.2559Y1.7717
X2.2559Y1.5
X2.2717Y2.2992
X2.2756Y3.4094
X2.2913Y1.589
X2.2913Y1.248
X2.2992Y3.6811
X2.3031Y5.3937
X2.3031Y1.9252
X2.311Y3.8583
X2.3268Y1.1693
X2.3465Y2.9685
X2.3492Y5.017
X2.3504Y3.1929
X2.3504Y2.0748
X2.3583Y1.374
X2.3772Y1.678
X2.3807Y5.0485
X2.3819Y4.248
X2.3819Y2.1181
X2.3937Y1.0197
X2.3976Y3.2283
X2.3976Y3.0827
X2.4055Y3.5433
X2.4213Y3.9646
X2.4606Y4.0472
X2.4715Y3.3947
X2.4724Y3.6929
X2.4724Y3.6102
X2.4882Y1.3701
X2.4898Y1.589
X2.4921Y2.6024
X2.498Y2.1594
X2.5128Y2.2136
X2.5195Y3.5354
X2.5394Y1.1102
X2.5433Y3.2638
X2.5433Y1.4646
X2.5551Y0.4094
X2.5748Y5.811
X2.5945Y1.9882
X2.6024Y0.8524
X2.6063Y3.8583
X2.6142Y1.3701
X2.6614Y3.4951
X2.6654Y1.7717
X2.6693Y3.6063
X2.6772Y1.2559
X2.6811Y1.1339
X2.6949Y2.1594
X2.7087Y1.1693
X2.7165Y1.4331
X2.7244Y1.0906
X2.7323Y3.7362
X2.7362Y1.6811
X2.7441Y0.4291
X2.748Y1.2008
X2.7638Y2.0669
X2.7795Y2.1811
X2.7835Y0.8051
X2.7874Y1.3701
X2.8268Y2.8465
X2.8268Y0.8858
X2.8327Y1.2441
X2.8465Y0.5276
X2.8819Y3.8583
X2.8878Y2.6713
X2.8878Y1.3327
X2.9173Y1.0
X2.9291Y3.311
X2.9331Y0.6535
X2.937Y1.4646
X2.9449Y0.7953
X2.9528Y3.6142
X2.9567Y3.5039
X2.9567Y1.0354
X2.9685Y1.7756
X2.9961Y5.7244
X3.0118Y1.5787
X3.0138Y5.0256
X3.0157Y4.8543
X3.0236Y0.8228
X3.0472Y5.9449
X3.0587Y1.5643
X3.063Y5.7205
X3.0631Y1.3337
X3.0709Y3.8583
X3.0709Y2.126
X3.0906Y1.0551
X3.0945Y4.6732
X3.1181Y1.3583
X3.122Y0.7992
X3.1339Y1.7677
X3.1496Y0.5748
X3.1614Y1.2362
X3.1811Y1.8189
X3.2269Y5.7781
X3.2402Y3.8583
X3.2638Y0.4764
X3.2654Y3.7307
X3.2677Y0.7205
X3.311Y3.7874
X3.315Y1.8189
X3.3228Y1.1398
X3.3228Y0.4291
X3.3386Y1.9951
X3.3543Y1.0453
X3.3583Y4.9724
X3.3661Y0.7992
X3.3661Y0.6181
X3.378Y1.9252
X3.3937Y0.9606
X3.3937Y0.8465
X3.4016Y5.9646
X3.4016Y5.6024
X3.4094Y1.1772
X3.4582Y5.8922
X3.5079Y1.4173
X3.5236Y0.437
X3.5315Y1.9291
X3.5433Y0.5039
X3.5576Y5.5133
X3.5591Y1.3386
X3.5669Y1.7953
X3.6102Y4.2874
X3.6102Y3.9173
X3.6732Y1.4291
X3.685Y5.7205
X3.7008Y2.252
X3.7087Y1.0236
X3.752Y3.9291
X3.7585Y0.8845
X3.7717Y3.1772
X3.7726Y2.6073
X3.7913Y3.4094
X3.8031Y1.5157
X3.8031Y0.9331
X3.8036Y4.6029
X3.815Y3.4803
X3.8425Y5.6457
X3.8425Y0.5748
X3.8465Y5.5354
X3.8543Y0.4724
X3.9075Y3.2736
X3.9094Y3.8425
X3.9528Y5.9646
X3.9604Y0.2797
X3.9961Y3.5472
X3.9961Y2.4724
X4.0202Y4.5989
X4.0394Y1.8465
X4.0433Y1.5039
X4.0472Y0.811
X4.0906Y4.9724
X4.0906Y1.5787
X4.1496Y0.4921
X4.1496Y3.4803
X4.157Y2.7357
X4.1693Y0.563
X4.1811Y1.0197
X4.2047Y3.4094
X4.2161Y2.5783
X4.2205Y1.0512
X4.2441Y2.9646
X4.2756Y3.378
X4.3228Y5.6457
X4.3268Y1.4134
X4.3268Y0.4291
X4.343Y2.283
X4.3622Y3.248
X4.3622Y2.6181
X4.3701Y3.0039
X4.4291Y4.0276
X4.4331Y2.9567
X4.4336Y1.0925
X4.4528Y0.9685
X4.4808Y5.095
X4.5123Y1.1176
X4.5281Y4.8469
X4.5472Y0.5669
X4.5512Y4.2795
X4.5512Y3.5
X4.5512Y3.2795
X4.5512Y3.0433
X4.5551Y1.7559
X4.5591Y2.0118
X4.563Y3.7362
X4.563Y2.374
X4.5748Y2.7087
X4.5984Y0.5118
X4.6181Y2.5394
X4.6373Y5.1531
X4.6496Y0.9803
X4.6575Y1.8346
X4.6811Y3.2087
X4.689Y4.9646
X4.7165Y2.5748
X4.7279Y2.78
X4.8327Y1.7461
X4.8504Y2.5512
X4.8937Y1.8169
X4.8976Y2.1339
X4.9567Y3.9488
X4.9567Y2.4409
X4.9921Y3.2087
X4.9961Y3.1299
X4.9966Y1.7367
X5.0Y3.378
X5.0Y3.0512
X5.0079Y3.3268
X5.0118Y2.0276
X5.0709Y1.5433
X5.0827Y2.6417
X5.1496Y3.3661
X5.1535Y1.4449
X5.1535Y0.9803
X5.1575Y3.2992
X5.1575Y1.8543
X5.1614Y0.8307
X5.1614Y0.5827
X5.186Y2.2687
X5.1929Y3.1693
X5.2087Y3.248
X5.2087Y2.3622
X5.2126Y1.689
X5.2244Y3.0906
X5.2244Y2.5512
X5.2244Y1.9646
X5.2323Y3.626
X5.2323Y1.3189
X5.2362Y4.7638
X5.2441Y2.4921
X5.248Y2.2087
X5.2913Y1.248
X5.2992Y4.6063
X5.311Y4.0748
X5.315Y1.9843
X5.3268Y2.9272
X5.3583Y5.2244
X5.3937Y3.0748
X5.4213Y3.1457
X5.4528Y4.9291
X5.4528Y3.0197
X5.4798Y2.0871
X5.4838Y2.2406
X5.4843Y1.7746
X5.4961Y1.8465
X5.5276Y1.8031
X5.5591Y4.6181
X5.5709Y1.8268
X5.5827Y1.7205
X5.6161Y2.3563
X5.6161Y1.9429
X5.7638Y1.7874
X5.7953Y3.5551
X5.7953Y3.311
X5.7953Y3.0669
X5.7992Y2.8228
X5.7992Y2.5669
X5.8543Y2.0866
X5.8622Y4.0591
X5.8622Y3.752
X5.8661Y3.9134
X5.9252Y2.8189
X5.9528Y1.0039
X5.9843Y3.248
X5.9961Y1.0433
X6.0005Y2.4173
T2
X5.0102Y4.7087
X5.0102Y4.6087
X5.0102Y4.5087
X5.0102Y4.4087
X5.0102Y4.3087
X5.0102Y4.2087
X5.1102Y4.7087
X5.1102Y4.6087
X5.1102Y4.5087
X5.1102Y4.4087
X5.1102Y4.3087
X5.1102Y4.2087
X2.8504Y0.3008
X2.8504Y0.2008
X2.9504Y0.3008
X2.9504Y0.2008
X3.0504Y0.3008
X3.0504Y0.2008
X3.1504Y0.3008
X3.1504Y0.2008
X3.2504Y0.3008
X3.2504Y0.2008
X3.1654Y2.2024
X3.1654Y2.1024
X3.2654Y2.2024
X3.2654Y2.1024
X3.3654Y2.2024
X3.3654Y2.1024
X3.4654Y2.2024
X3.4654Y2.1024
X3.5654Y2.2024
X3.5654Y2.1024
X4.1102Y3.3276
X4.1102Y3.2276
X4.1102Y3.1276
X4.1102Y3.0276
X2.463Y0.713
X2.463Y0.613
X2.463Y0.513
X2.463Y0.413
X2.463Y0.313
X2.463Y0.213
X4.748Y0.5197
X4.748Y0.4197
X4.748Y0.3197
X4.748Y0.2197
X3.6732Y1.6811
X3.7732Y1.6811
X3.8732Y1.6811
X1.2354Y3.7008
X1.3354Y3.7008
X1.4354Y3.7008
X1.5354Y3.7008
X4.9488Y0.5118
X4.9488Y0.4118
X3.6402Y1.3307
X3.7402Y1.3307
T3
X0.3606Y2.589
X0.3606Y2.489
X0.3606Y2.389
X0.3606Y2.289
X0.3606Y2.189
X0.3606Y2.089
X0.3606Y1.989
X0.3606Y1.889
X0.3606Y1.789
X0.3606Y1.689
X0.3606Y1.589
X0.3606Y1.489
X0.3606Y1.389
X0.3606Y1.289
X0.3606Y1.189
X0.3606Y1.089
X0.3606Y0.989
X0.3606Y0.889
X0.3606Y0.789
X0.3606Y0.689
X0.4606Y2.589
X0.4606Y2.489
X0.4606Y2.389
X0.4606Y2.289
X0.4606Y2.189
X0.4606Y2.089
X0.4606Y1.989
X0.4606Y1.889
X0.4606Y1.789
X0.4606Y1.689
X0.4606Y1.589
X0.4606Y1.489
X0.4606Y1.389
X0.4606Y1.289
X0.4606Y1.189
X0.4606Y1.089
X0.4606Y0.989
X0.4606Y0.889
X0.4606Y0.789
X0.4606Y0.689
T4
X0.5906Y5.8862
X0.1693Y5.8862
X0.1693Y5.4528
X5.8862Y0.1717
X5.8862Y5.8862
X5.8858Y5.4472
X1.3583Y0.1717
T5
X0.5906Y5.4528
X5.4724Y0.1717
T0
M30
